<mxfile host="app.diagrams.net" modified="2023-01-20T04:23:33.867Z" agent="5.0 (Windows NT 10.0; Win64; x64) AppleWebKit/537.36 (KHTML, like Gecko) Chrome/109.0.0.0 Safari/537.36" etag="X_sV_f6V-jl7_GGc-e1C" version="20.2.8" type="github">
  <diagram id="_F06sp-yQKjJkgssnfOi" name="Страница 1">
    <mxGraphModel dx="1407" dy="647" grid="1" gridSize="10" guides="1" tooltips="1" connect="1" arrows="1" fold="1" page="1" pageScale="1" pageWidth="1600" pageHeight="900" background="none" math="0" shadow="1">
      <root>
        <mxCell id="0" />
        <mxCell id="1" parent="0" />
        <mxCell id="6XBw7ImoVKngGdlgSX3M-6" value="" style="whiteSpace=wrap;html=1;aspect=fixed;" vertex="1" parent="1">
          <mxGeometry x="420" y="350" width="310" height="310" as="geometry" />
        </mxCell>
        <mxCell id="6XBw7ImoVKngGdlgSX3M-1" value="msk-es04-app150&amp;nbsp;" style="outlineConnect=0;dashed=0;verticalLabelPosition=bottom;verticalAlign=top;align=center;html=1;shape=mxgraph.aws3.postgre_sql_instance;fillColor=#2E73B8;gradientColor=none;" vertex="1" parent="1">
          <mxGeometry x="210" y="450" width="70" height="95" as="geometry" />
        </mxCell>
        <mxCell id="6XBw7ImoVKngGdlgSX3M-3" value="&lt;span style=&quot;font-family: &amp;quot;Liberation Serif&amp;quot;, serif;&quot;&gt;&lt;u style=&quot;&quot;&gt;&lt;font style=&quot;font-size: 10px;&quot;&gt;Сервис аналитики&lt;/font&gt;&lt;/u&gt;&lt;/span&gt;" style="whiteSpace=wrap;html=1;aspect=fixed;align=left;" vertex="1" parent="1">
          <mxGeometry x="430" y="360" width="120" height="120" as="geometry" />
        </mxCell>
        <mxCell id="6XBw7ImoVKngGdlgSX3M-2" value="" style="sketch=0;aspect=fixed;html=1;points=[];align=center;image;fontSize=12;image=img/lib/mscae/Docker.svg;" vertex="1" parent="1">
          <mxGeometry x="430" y="360" width="48.78" height="40" as="geometry" />
        </mxCell>
        <mxCell id="6XBw7ImoVKngGdlgSX3M-4" value="&lt;span lang=&quot;EN-US&quot;&gt;&lt;u&gt;&lt;font style=&quot;font-size: 10px;&quot;&gt;Appsmith&lt;/font&gt;&lt;/u&gt;&lt;/span&gt;" style="whiteSpace=wrap;html=1;aspect=fixed;align=left;" vertex="1" parent="1">
          <mxGeometry x="430" y="530" width="120" height="120" as="geometry" />
        </mxCell>
        <mxCell id="6XBw7ImoVKngGdlgSX3M-5" value="" style="sketch=0;aspect=fixed;html=1;points=[];align=center;image;fontSize=12;image=img/lib/mscae/Docker.svg;" vertex="1" parent="1">
          <mxGeometry x="430" y="530" width="48.78" height="40" as="geometry" />
        </mxCell>
        <mxCell id="6XBw7ImoVKngGdlgSX3M-8" value="" style="fontColor=#0066CC;verticalAlign=top;verticalLabelPosition=bottom;labelPosition=center;align=center;html=1;outlineConnect=0;fillColor=#CCCCCC;strokeColor=#6881B3;gradientColor=none;gradientDirection=north;strokeWidth=2;shape=mxgraph.networks.server;fontSize=10;" vertex="1" parent="1">
          <mxGeometry x="200" y="220" width="90" height="100" as="geometry" />
        </mxCell>
        <mxCell id="6XBw7ImoVKngGdlgSX3M-12" value="" style="endArrow=classic;startArrow=classic;html=1;rounded=0;fontSize=10;entryX=0;entryY=1;entryDx=0;entryDy=0;entryPerimeter=0;" edge="1" parent="1" target="6XBw7ImoVKngGdlgSX3M-2">
          <mxGeometry width="50" height="50" relative="1" as="geometry">
            <mxPoint x="280" y="490" as="sourcePoint" />
            <mxPoint x="330" y="440" as="targetPoint" />
            <Array as="points">
              <mxPoint x="370" y="490" />
              <mxPoint x="370" y="400" />
            </Array>
          </mxGeometry>
        </mxCell>
        <mxCell id="6XBw7ImoVKngGdlgSX3M-13" value="" style="endArrow=classic;html=1;rounded=0;fontSize=10;" edge="1" parent="1" source="6XBw7ImoVKngGdlgSX3M-8" target="6XBw7ImoVKngGdlgSX3M-1">
          <mxGeometry width="50" height="50" relative="1" as="geometry">
            <mxPoint x="240" y="450" as="sourcePoint" />
            <mxPoint x="270" y="400" as="targetPoint" />
          </mxGeometry>
        </mxCell>
        <mxCell id="6XBw7ImoVKngGdlgSX3M-15" value="сбор данных" style="edgeLabel;html=1;align=center;verticalAlign=middle;resizable=0;points=[];fontSize=10;" vertex="1" connectable="0" parent="6XBw7ImoVKngGdlgSX3M-13">
          <mxGeometry x="-0.1495" y="1" relative="1" as="geometry">
            <mxPoint as="offset" />
          </mxGeometry>
        </mxCell>
        <mxCell id="6XBw7ImoVKngGdlgSX3M-14" value="" style="endArrow=classic;html=1;rounded=0;fontSize=10;" edge="1" parent="1">
          <mxGeometry width="50" height="50" relative="1" as="geometry">
            <mxPoint x="489.71000000000004" y="480" as="sourcePoint" />
            <mxPoint x="490" y="530" as="targetPoint" />
            <Array as="points">
              <mxPoint x="490" y="500" />
            </Array>
          </mxGeometry>
        </mxCell>
        <mxCell id="6XBw7ImoVKngGdlgSX3M-16" value="Визуализация обработанной информации" style="edgeLabel;html=1;align=center;verticalAlign=middle;resizable=0;points=[];fontSize=10;" vertex="1" connectable="0" parent="6XBw7ImoVKngGdlgSX3M-14">
          <mxGeometry x="0.0458" relative="1" as="geometry">
            <mxPoint as="offset" />
          </mxGeometry>
        </mxCell>
      </root>
    </mxGraphModel>
  </diagram>
</mxfile>
